<svg id="Layer_1" data-name="Layer 1" xmlns="http://www.w3.org/2000/svg" viewBox="0 0 3841.25 2158.82"><defs><style>.cls-1{fill:#232323;}.cls-2{fill:#d9d7cf;}</style></defs><polygon class="cls-1" points="0 358 355 0 426 0 0 429 0 358"/><polygon class="cls-1" points="652 0 0 649 0 795 795 0 652 0"/><polygon class="cls-1" points="0 866 864 0 898 0 0 906 0 866"/><polygon class="cls-2" points="3840.19 1787.25 3474.52 2158.82 3401.52 2158.69 3840.33 1713.42 3840.19 1787.25"/><polygon class="cls-2" points="3169.16 2158.26 3840.75 1484.66 3841.03 1332.85 3022.14 2157.98 3169.16 2158.26"/><polygon class="cls-2" points="3841.17 1259.02 2951.2 2157.85 2916.25 2157.79 3841.25 1217.43 3841.17 1259.02"/></svg>