<svg xmlns="http://www.w3.org/2000/svg" viewBox="0 0 160.5 159.8"><defs><style>.cls-1{fill:#231f20;}.cls-2,.cls-4{fill:none;}.cls-3{fill:#fff;}.cls-4{stroke:#fff;stroke-miterlimit:10;}.cls-5{fill:#d9d7cf;}</style></defs><g id="Layer_1" data-name="Layer 1"><g id="_10" data-name="10"><path class="cls-1" d="M762.3,345.3a139.62,139.62,0,0,0-73.3-73,14.38,14.38,0,0,0-11.5,0,140,140,0,0,0-43.7,29.5,137.8,137.8,0,0,0-29.6,43.5,14.14,14.14,0,0,0,0,11.4,139.62,139.62,0,0,0,73.3,73,14.38,14.38,0,0,0,11.5,0,140,140,0,0,0,43.7-29.5,137.8,137.8,0,0,0,29.6-43.5A14.14,14.14,0,0,0,762.3,345.3Z" transform="translate(-603 -271.1)"/><rect class="cls-2" x="15.2" y="67.5" width="129.3" height="51.4"/><polygon class="cls-3" points="80.6 35.8 82.9 40.4 88 41.1 84.3 44.7 85.2 49.7 80.6 47.3 76.1 49.7 77 44.7 73.3 41.1 78.4 40.4 80.6 35.8"/><polygon class="cls-3" points="100.6 37.6 102 40.5 105.4 41 103 43.4 103.5 46.6 100.6 45.1 97.6 46.6 98.2 43.4 95.8 41 99.1 40.5 100.6 37.6"/><polygon class="cls-3" points="60.8 37.6 62.2 40.5 65.5 41 63.2 43.4 63.7 46.6 60.8 45.1 57.8 46.6 58.4 43.4 56 41 59.3 40.5 60.8 37.6"/><line class="cls-4" x1="59.4" y1="129.1" x2="102.5" y2="129.1"/></g></g><g id="Layer_2" data-name="Layer 2"><path class="cls-5" d="M655.89,345.55A19.07,19.07,0,0,0,654,341c-1.18-2.1-2.1-2.6-5.58-2.6h-6.63c-1.8,0-2,.19-2,2v14.33h7.68c4.47,0,4.78-.75,5.71-5.09H655v13h-1.92c-.81-4.34-1.24-5.33-5.65-5.33h-7.68V368.3c0,5.4.62,5.65,6.26,6.14v1.74H628.8v-1.74c5-.37,5.58-.8,5.58-6.14V343.75c0-5.39-.62-5.64-5.58-6.13v-1.74h19.66c5.58,0,7.68-.06,8.74-.12.06,2.23.31,6.57.62,9.54Z" transform="translate(-603 -271.1)"/><path class="cls-5" d="M701,376.67c-.81,0-1.49-.06-2.3-.12-4.52-.31-6.94-1.49-9.67-5.33-2.29-3.16-4.52-7.07-6.51-10.23-1.24-2-2-2.36-5.2-2.36h-2.17v9.74c0,5.27.68,5.58,5.64,6.07v1.74H664.21v-1.74c5.14-.56,5.57-.8,5.57-6.07V343.63c0-5.27-.68-5.46-5.57-6v-1.74H680c4.53,0,7.57.56,9.92,2.11a9.24,9.24,0,0,1,4.22,8.18c0,5.33-3.41,8.68-8,10.66,1.12,1.93,3.78,6.08,5.64,8.87a56.88,56.88,0,0,0,4.9,6.39,9,9,0,0,0,4.53,2.85Zm-22.88-20.15c3.23,0,5.27-.49,6.82-1.79,2.42-1.8,3.41-4.28,3.41-7.63,0-6.63-4.4-9.05-9.17-9.05-1.8,0-2.86.25-3.29.62s-.74,1.05-.74,2.67v15.18Z" transform="translate(-603 -271.1)"/><path class="cls-5" d="M744.49,337.62c-3.9.24-5.33,1.24-5.45,4.09-.06,1.42-.19,4-.19,9.73v6.7c0,6.32-.74,11.16-4.34,14.94-2.91,3-7.13,4-11.41,4-3.59,0-7.44-.75-10.16-2.86-3.72-2.85-5.52-7.13-5.52-14.38V344c0-5.58-.5-5.95-5.46-6.38v-1.74h16.31v1.74c-5,.31-5.46.8-5.46,6.38v15.5c0,9.05,4.28,14,11.72,14,8.8,0,11.59-5.45,11.59-15.75v-6.32c0-5.7-.18-8.06-.31-9.73-.18-2.79-1.61-3.85-6.2-4.09v-1.74h14.88Z" transform="translate(-603 -271.1)"/></g></svg>